<?xml version="1.0" encoding="utf-8"?>
<!-- Generator: Adobe Illustrator 21.1.0, SVG Export Plug-In . SVG Version: 6.00 Build 0)  -->
<svg version="1.1" id="Layer_1" xmlns="http://www.w3.org/2000/svg" xmlns:xlink="http://www.w3.org/1999/xlink" x="0px" y="0px"
	 viewBox="0 0 100.4 100.4" style="enable-background:new 0 0 100.4 100.4;" xml:space="preserve">
<path d="M88.6,25.1V12.9c0-0.8-0.7-1.5-1.5-1.5H50.5V4.1c0-0.8-0.7-1.5-1.5-1.5s-1.5,0.7-1.5,1.5v7.3H11c-0.8,0-1.5,0.7-1.5,1.5
	v12.2c0,0.4,0,1.3,0,2V63c0,0.8,0.7,1.5,1.5,1.5h23.2l-7.7,32.3c-0.2,0.8,0.3,1.6,1.1,1.8c0.1,0,0.2,0,0.4,0c0.7,0,1.3-0.5,1.5-1.1
	l7.9-33h10.3v24.2c0,0.8,0.7,1.5,1.5,1.5s1.5-0.7,1.5-1.5V64.5h10l8.2,33c0.2,0.7,0.8,1.1,1.5,1.1c0.1,0,0.2,0,0.4,0
	c0.8-0.2,1.3-1,1.1-1.8l-8-32.3h23.4c0.8,0,1.5-0.7,1.5-1.5C88.8,63,88.6,25.6,88.6,25.1z M85.6,14.4v10.2H12.5V14.4H85.6z
	 M12.5,61.5V27.6h73.1v33.9H12.5z"/>
</svg>
