<?xml version="1.0" encoding="iso-8859-1"?>
<!-- Generator: Adobe Illustrator 21.0.0, SVG Export Plug-In . SVG Version: 6.00 Build 0)  -->
<svg version="1.1" id="Layer_1" xmlns="http://www.w3.org/2000/svg" xmlns:xlink="http://www.w3.org/1999/xlink" x="0px" y="0px"
	 viewBox="0 0 100.353 100.353" style="enable-background:new 0 0 100.353 100.353;" xml:space="preserve">
<g>
	<path style="fill:#231F20;" d="M61.77,51.074l7.802-7.604c0.75-0.727,1.018-1.797,0.697-2.794c-0.321-0.999-1.166-1.716-2.208-1.87
		l-10.793-1.564l-4.821-9.781c-0.467-0.937-1.405-1.518-2.449-1.518c-0.002,0-0.005,0.001-0.008,0.001
		c-1.043,0.002-1.978,0.586-2.44,1.523l-4.82,9.774l-10.79,1.565c-1.044,0.155-1.891,0.877-2.21,1.883
		c-0.317,0.998-0.044,2.066,0.701,2.777l7.803,7.606l-1.849,10.794c-0.174,1.027,0.238,2.05,1.077,2.666
		c0.48,0.353,1.044,0.532,1.612,0.532c0.42,0,0.842-0.099,1.232-0.297l9.92-5.021l9.418,4.95c0.931,0.491,2.036,0.411,2.885-0.205
		c0.848-0.615,1.265-1.641,1.088-2.675L61.77,51.074z M50.239,28.793L50.239,28.793L50.239,28.793L50.239,28.793z M58.68,50.804
		l1.888,10.991l-9.632-5.062c-0.43-0.226-0.942-0.23-1.375-0.011L39.43,61.849l1.892-11.046c0.083-0.486-0.078-0.982-0.432-1.327
		l-7.979-7.779l11.029-1.6c0.489-0.071,0.912-0.378,1.13-0.821l4.929-9.994l4.926,9.994c0.218,0.443,0.641,0.751,1.13,0.821
		l11.039,1.6l-7.982,7.779C58.758,49.821,58.596,50.318,58.68,50.804z"/>
	<path style="fill:#231F20;" d="M97.471,56.781c-0.274-0.856-0.997-1.471-1.896-1.606l-7.122-1.031l-3.185-6.457
		c-0.399-0.803-1.204-1.301-2.1-1.301c-0.002,0-0.004,0-0.006,0c-0.896,0.002-1.698,0.502-2.093,1.306l-3.182,6.452l-7.128,1.032
		c-0.891,0.135-1.613,0.752-1.886,1.609c-0.271,0.854-0.039,1.77,0.599,2.384l5.151,5.024l-1.22,7.121
		c-0.151,0.878,0.198,1.751,0.912,2.28c0.413,0.306,0.899,0.462,1.391,0.462c0.36,0,0.722-0.084,1.06-0.253l6.558-3.319l6.213,3.269
		c0.801,0.423,1.752,0.351,2.481-0.184c0.726-0.532,1.077-1.412,0.919-2.282l-1.214-7.094l5.148-5.021
		C97.515,58.549,97.744,57.632,97.471,56.781z M83.761,49.017L83.761,49.017C83.761,49.017,83.761,49.018,83.761,49.017
		L83.761,49.017z M89.065,62.595c-0.353,0.345-0.514,0.841-0.431,1.327l1.122,6.556l-5.72-3.009
		c-0.43-0.228-0.943-0.231-1.375-0.012l-6.079,3.077l1.133-6.612c0.083-0.486-0.078-0.982-0.431-1.327l-4.761-4.644l6.577-0.953
		c0.489-0.07,0.912-0.378,1.13-0.821l2.941-5.964l2.941,5.964c0.218,0.443,0.641,0.751,1.13,0.821l6.583,0.953L89.065,62.595z"/>
	<path style="fill:#231F20;" d="M29.232,55.174l-7.122-1.031l-3.185-6.457c-0.399-0.803-1.204-1.301-2.1-1.301
		c-0.002,0-0.004,0-0.006,0c-0.896,0.002-1.699,0.503-2.094,1.308l-3.181,6.45l-7.128,1.032c-0.892,0.136-1.616,0.753-1.889,1.611
		c-0.271,0.854-0.039,1.769,0.598,2.382l5.152,5.024l-1.217,7.12c-0.152,0.878,0.198,1.752,0.912,2.281
		c0.412,0.306,0.899,0.462,1.391,0.462c0.359,0,0.722-0.084,1.059-0.254l6.556-3.318l6.216,3.269
		c0.799,0.421,1.747,0.354,2.475-0.18c0.727-0.529,1.081-1.408,0.926-2.286l-1.214-7.094l5.147-5.021
		c0.642-0.622,0.872-1.537,0.599-2.39C30.853,55.926,30.131,55.31,29.232,55.174z M22.722,62.595
		c-0.353,0.345-0.514,0.841-0.431,1.327l1.122,6.556l-5.723-3.01c-0.431-0.226-0.943-0.231-1.375-0.01l-6.076,3.075l1.13-6.611
		c0.083-0.486-0.078-0.982-0.431-1.327l-4.761-4.644l6.58-0.953c0.489-0.07,0.912-0.378,1.13-0.821l2.941-5.964l2.941,5.964
		c0.218,0.443,0.641,0.751,1.13,0.821l6.583,0.953L22.722,62.595z"/>
</g>
</svg>
