<?xml version="1.0" encoding="iso-8859-1"?>
<!-- Generator: Adobe Illustrator 21.0.0, SVG Export Plug-In . SVG Version: 6.00 Build 0)  -->
<svg version="1.1" id="Layer_1" xmlns="http://www.w3.org/2000/svg" xmlns:xlink="http://www.w3.org/1999/xlink" x="0px" y="0px"
	 viewBox="0 0 100.353 100.352" style="enable-background:new 0 0 100.353 100.352;" xml:space="preserve">
<g>
	<path d="M73.675,50.364c0-13.251-10.781-24.032-24.033-24.032c-13.254,0-24.037,10.781-24.037,24.032
		c0,13.252,10.783,24.033,24.037,24.033C62.894,74.397,73.675,63.616,73.675,50.364z M28.958,50.364
		c0-11.402,9.279-20.679,20.684-20.679c11.403,0,20.68,9.276,20.68,20.679s-9.277,20.68-20.68,20.68
		C38.237,71.044,28.958,61.767,28.958,50.364z"/>
	<path d="M49.642,22.763c0.926,0,1.676-0.75,1.676-1.676V8.53c0-0.926-0.75-1.676-1.676-1.676s-1.676,0.75-1.676,1.676v12.557
		C47.966,22.013,48.716,22.763,49.642,22.763z"/>
	<path d="M60.174,24.703c0.198,0.076,0.401,0.112,0.601,0.112c0.674,0,1.309-0.409,1.565-1.075l4.507-11.722
		c0.332-0.864-0.099-1.834-0.963-2.167c-0.865-0.334-1.834,0.099-2.167,0.963L59.21,22.536
		C58.879,23.401,59.31,24.371,60.174,24.703z"/>
	<path d="M71.491,30.911c0.466,0,0.93-0.193,1.261-0.572l8.274-9.438c0.61-0.696,0.541-1.755-0.156-2.366
		c-0.695-0.61-1.755-0.542-2.366,0.156l-8.274,9.438c-0.61,0.696-0.541,1.755,0.156,2.366
		C70.704,30.774,71.098,30.911,71.491,30.911z"/>
	<path d="M75.928,38.814c0.24,0.693,0.889,1.128,1.584,1.128c0.182,0,0.367-0.03,0.548-0.092l11.877-4.113
		c0.875-0.303,1.339-1.258,1.036-2.132c-0.303-0.875-1.26-1.339-2.132-1.036l-11.877,4.112
		C76.088,36.985,75.624,37.94,75.928,38.814z"/>
	<path d="M92.33,49.685H79.765c-0.926,0-1.676,0.75-1.676,1.676s0.75,1.676,1.676,1.676H92.33c0.926,0,1.677-0.75,1.677-1.676
		S93.256,49.685,92.33,49.685z"/>
	<path d="M49.642,78.205c-0.926,0-1.676,0.75-1.676,1.676v12.558c0,0.926,0.75,1.676,1.676,1.676s1.676-0.75,1.676-1.676V79.881
		C51.318,78.956,50.568,78.205,49.642,78.205z"/>
	<path d="M62.341,77.228c-0.332-0.864-1.302-1.297-2.167-0.963c-0.864,0.333-1.295,1.302-0.963,2.167l4.507,11.722
		c0.256,0.667,0.892,1.075,1.565,1.075c0.2,0,0.403-0.036,0.601-0.112c0.864-0.333,1.295-1.302,0.963-2.167L62.341,77.228z"/>
	<path d="M72.752,70.629c-0.611-0.697-1.67-0.765-2.366-0.156c-0.696,0.61-0.766,1.669-0.156,2.366l8.274,9.44
		c0.332,0.378,0.795,0.572,1.261,0.572c0.393,0,0.787-0.137,1.104-0.416c0.696-0.61,0.766-1.669,0.156-2.366L72.752,70.629z"/>
	<path d="M89.938,65.232l-11.877-4.115c-0.874-0.303-1.829,0.16-2.133,1.035c-0.303,0.875,0.16,1.83,1.035,2.133L88.84,68.4
		c0.182,0.063,0.367,0.093,0.549,0.093c0.695,0,1.344-0.435,1.584-1.128C91.276,66.49,90.813,65.535,89.938,65.232z"/>
	<path d="M38.162,23.741c0.256,0.666,0.892,1.075,1.565,1.075c0.2,0,0.403-0.036,0.602-0.112c0.864-0.333,1.295-1.303,0.963-2.167
		l-4.508-11.72c-0.332-0.863-1.3-1.297-2.167-0.963c-0.864,0.333-1.295,1.303-0.963,2.167L38.162,23.741z"/>
	<path d="M27.751,30.341c0.332,0.378,0.795,0.572,1.261,0.572c0.393,0,0.787-0.137,1.104-0.416c0.696-0.61,0.766-1.669,0.156-2.366
		l-8.275-9.44c-0.611-0.697-1.67-0.765-2.366-0.156c-0.696,0.61-0.766,1.669-0.156,2.366L27.751,30.341z"/>
	<path d="M10.565,35.74l11.877,4.111c0.182,0.062,0.367,0.092,0.548,0.092c0.695,0,1.344-0.435,1.584-1.128
		c0.303-0.875-0.161-1.83-1.036-2.133l-11.877-4.111c-0.875-0.301-1.83,0.162-2.133,1.036C9.226,34.482,9.69,35.436,10.565,35.74z"
		/>
	<path d="M22.413,51.364c0-0.926-0.751-1.676-1.677-1.676H8.171c-0.926,0-1.676,0.75-1.676,1.676s0.75,1.676,1.676,1.676h12.565
		C21.662,53.04,22.413,52.289,22.413,51.364z"/>
	<path d="M40.328,76.268c-0.863-0.333-1.834,0.099-2.167,0.963l-4.508,11.723c-0.332,0.864,0.099,1.834,0.963,2.167
		c0.198,0.076,0.401,0.112,0.601,0.112c0.674,0,1.309-0.409,1.565-1.075l4.508-11.723C41.624,77.571,41.193,76.601,40.328,76.268z"
		/>
	<path d="M27.751,70.633l-8.275,9.437c-0.61,0.696-0.541,1.755,0.155,2.366c0.318,0.279,0.712,0.416,1.105,0.416
		c0.466,0,0.93-0.193,1.261-0.571l8.275-9.437c0.61-0.696,0.541-1.755-0.155-2.366C29.421,69.868,28.362,69.935,27.751,70.633z"/>
	<path d="M24.575,62.156c-0.303-0.875-1.256-1.34-2.133-1.036l-11.877,4.111c-0.875,0.303-1.339,1.258-1.036,2.133
		c0.24,0.693,0.89,1.128,1.584,1.128c0.182,0,0.367-0.03,0.548-0.092l11.877-4.111C24.414,63.986,24.878,63.031,24.575,62.156z"/>
</g>
</svg>
